<?xml version="1.0" encoding="utf-8"?>
<!-- Generator: Adobe Illustrator 16.0.0, SVG Export Plug-In . SVG Version: 6.00 Build 0)  -->
<!DOCTYPE svg PUBLIC "-//W3C//DTD SVG 1.1//EN" "http://www.w3.org/Graphics/SVG/1.1/DTD/svg11.dtd">
<svg version="1.1" id="Layer_1" xmlns="http://www.w3.org/2000/svg" xmlns:xlink="http://www.w3.org/1999/xlink" x="0px" y="0px"
	 width="30px" height="30px" viewBox="0 0 30 30" enable-background="new 0 0 30 30" xml:space="preserve">
<path fill="#FFFFFF" stroke="#000000" stroke-miterlimit="10" d="M30,0.5h-2.071L25.84,1.159c0,0-2.041,0.708-2.187,0.659
	s-2.284-0.66-2.284-0.66l-1.7-0.66c0,0-1.313,0.057-1.458,0.002s-1.458,1.075-1.458,1.075l-2.624,0.243l-1.215-0.875L11.408,0.5
	c0,0-1.458,0.201-1.604,0.201S8.881,1.159,8.881,1.159L7.327,1.818L5.626,1.575L4,0.5H1.447c0,0,0.053,0.147-0.947,0.827V4
	l1.53,0.928c0,0-0.292,1.798-0.292,1.992S1.204,8.621,1.204,8.621L0.585,10.03L0.5,12.168l0.655,2.041l0.438,1.409L1.35,17.465
	l-0.765,1.021L0.5,20.38l0.558,1.896l-0.194,1.506l-0.278,1.069l0.716,0.874l-0.389,1.069L0.5,27.766V30"/>
<path fill="#FFFFFF" stroke="#000000" stroke-miterlimit="10" d="M0.585,3.276"/>
<line fill="#FFFFFF" stroke="#000000" stroke-miterlimit="10" x1="29" y1="29.5" x2="30" y2="29.5"/>
<path fill="#FFFFFF" stroke="#000000" stroke-miterlimit="10" d="M7.375,6.337L6.549,6.969l0.413,1.215c0,0,1.434,0.826,1.58,0.826
	s2.332-0.583,2.332-0.583l0.486-1.361l-0.923-0.729L8.954,5.706l-1.142,0.34L7.375,6.337z"/>
<path fill="#FFFFFF" stroke="#000000" stroke-miterlimit="10" d="M18.5,10.127l0.73-2.284l1.822-0.486c0,0,0.767,1.021,0.863,1.167
	s0.845,1.361,0.796,1.604s-0.403,0.972-0.599,1.118s-0.785,0.583-0.931,0.631s-1.415,0-1.415,0L18.5,11.05V10.127z"/>
<polygon fill="#FFFFFF" stroke="#000000" stroke-miterlimit="10" points="8.006,18.145 6.5,19.02 6.5,20.137 7.836,21.303 
	8.639,20.38 9.708,19.165 8.954,17.854 "/>
<path fill="#FFFFFF" stroke="#000000" stroke-miterlimit="10" d="M12.769,14.5c0,0,0.924,0.379,1.167,0.749s1.315,0.854,1.315,0.854
	s0.725-0.098,0.871,0"/>
<path fill="#FFFFFF" stroke="#000000" stroke-miterlimit="10" d="M25.159,17.5l-1.555,1.391c0,0,0.146,1.109,0.292,1.158
	s1.263,0.942,1.263,0.942l1.507-0.693l0.777-1.174L27.2,17.972L26.617,17.5H25.159z"/>
<path fill="#FFFFFF" stroke="#000000" stroke-miterlimit="10" d="M14.731,23.152L12.5,24.024V25c0,0,0.657,1.113,0.803,1.113
	s1.464,0.243,1.947,0.243s1.843,0.34,1.94,0s0.486-1.526,0.486-1.526l-0.973-0.757L14.731,23.152z"/>
<path fill="#FFFFFF" stroke="#EFE4E4" stroke-miterlimit="10" d="M1.69,1.624"/>
</svg>
