<?xml version="1.0" encoding="utf-8"?>
<!-- Generator: Adobe Illustrator 16.0.0, SVG Export Plug-In . SVG Version: 6.00 Build 0)  -->
<!DOCTYPE svg PUBLIC "-//W3C//DTD SVG 1.1//EN" "http://www.w3.org/Graphics/SVG/1.1/DTD/svg11.dtd">
<svg version="1.1" id="Layer_1" xmlns="http://www.w3.org/2000/svg" xmlns:xlink="http://www.w3.org/1999/xlink" x="0px" y="0px"
	 width="30px" height="30px" viewBox="0 0 30 30" enable-background="new 0 0 30 30" xml:space="preserve">
<path fill="#FFFFFF" stroke="#000000" stroke-miterlimit="10" d="M0,0.5h1l0.884,0.541c0,0,1.118,0.777,1.312,0.826
	s1.992,0.486,1.992,0.486L6.112,1.5H7l0.327-0.653L7.91,0.5H9l1.048,0.589c0,0,0.632,0.14,0.777,0.337s1.555,0.294,1.701,0.197
	s0.778,0.043,0.923-0.197s1.02-0.677,1.02-0.677l0.972-0.25l1.749,0.927l1.312,0.294l0.826-0.294l1.021-0.289
	c0,0,0.826-0.389,1.021-0.438S22.682,0.5,22.682,0.5l1.457,0.48l0.826,0.52H26c0,0,0.666-0.313,0.812-0.459S27.687,0.5,27.687,0.5
	H29h1"/>
<path fill="#FFFFFF" stroke="#000000" stroke-miterlimit="10" d="M0,29.5h1c0,0,0.788-0.08,0.933-0.226S3.05,28.5,3.05,28.5H3
	c0,0,1.411-0.589,1.654-0.589s1.409-0.243,1.798,0s1.556,0.34,1.896,0.438s1.02,0,1.36,0.049s1.263,0.459,1.458,0.254
	s1.167-0.546,1.167-0.546l1.215-0.303c0,0,0.437-0.255,0.729,0s0.875,0.649,1.312,0.792s1.313,0.629,1.458,0.629
	s0.632,0.31,0.972,0.276s2.915,0.003,2.915,0.003l1.798-0.906l1.701-0.297l2.089,0.297l1.798,0.577l0.924,0.326H30"/>
<path fill="#FFFFFF" stroke="#000000" stroke-miterlimit="10" d="M5.577,6.24C5.334,6.337,4.459,7.649,4.459,7.941
	s0.049,0.583,0.559,0.923s2.6,1.361,2.6,1.361s0.729,0.049,1.069,0s0.778-0.34,0.923-0.923s0.097-1.312,0-1.458
	S9.125,6.823,8.93,6.677S7.812,6.435,7.569,6.24S6.354,5.997,6.354,5.997L5.577,6.24z"/>
<path fill="#FFFFFF" stroke="#000000" stroke-miterlimit="10" d="M21.709,12.362c0,0-0.923,1.167-1.166,1.361s-0.389,0.778,0,1.021
	s1.993,0.632,2.284,0.68s0.146,0.146,0.923,0s1.313-0.341,1.313-0.972s-0.438-1.409-0.438-1.409s-1.069-0.438-1.264-0.438
	s-0.729-0.292-0.923-0.243S21.709,12.362,21.709,12.362z"/>
<path fill="#FFFFFF" stroke="#000000" stroke-miterlimit="10" d="M9.902,18.68c-0.243,0.146-0.729,1.798-0.729,1.798
	s-0.146,0.438,0.364,0.583s1.53,0.485,2.017,0.68s1.069,0.097,1.555,0s1.263-1.151,1.166-1.475s0-0.273-0.486-0.809
	s-0.681-0.389-1.118-0.777s-1.312-0.389-1.555-0.389S9.902,18.68,9.902,18.68z"/>
</svg>
